<svg width="21" height="28" viewBox="0 0 21 28" fill="none" xmlns="http://www.w3.org/2000/svg">
<path d="M20.9998 17.8679L20.919 18.892C20.8055 20.3168 20.3659 21.6963 19.6342 22.9238C18.9024 24.1513 17.8982 25.1939 16.6993 25.9709C15.3916 26.9 13.8546 27.4531 12.2551 27.57C11.1503 27.6657 10.0401 27.6807 8.93314 27.6149C7.00675 27.4735 5.1672 26.7565 3.65283 25.5568C2.13847 24.3571 1.01909 22.73 0.439761 20.8863C0.0651264 19.6383 -0.0749 18.3315 0.0267718 17.0324C0.211997 14.6703 0.820222 12.3607 1.82241 10.214C1.93913 9.94448 1.98402 9.92651 2.27132 10.0074L5.27901 10.9057L5.56632 10.9776C5.6561 10.5733 5.72792 10.187 5.8177 9.80073C6.15355 8.08441 6.8721 6.46604 7.91983 5.06617C8.96757 3.6663 10.3175 2.52101 11.869 1.71564L15.0204 0.00878906C15.0204 0.395077 14.9306 0.745451 14.8947 1.0958C14.7869 2.21873 14.6074 3.33267 14.5984 4.4556C14.5658 5.56569 14.7782 6.6693 15.2205 7.68789C15.6627 8.70648 16.324 9.615 17.1572 10.3487C17.9216 11.0088 18.6221 11.7397 19.2491 12.5317C20.1687 13.7745 20.7363 15.2424 20.8921 16.7809C20.937 17.1312 20.9549 17.4816 20.9819 17.8319L20.9998 17.8679ZM15.6847 24.6773L15.8823 24.5605C17.3018 23.5773 18.3694 22.165 18.9284 20.5306C19.4874 18.8962 19.5086 17.1256 18.9887 15.4783C18.544 14.1737 17.7562 13.0131 16.7082 12.1185C15.8673 11.4121 15.1245 10.5963 14.4996 9.69293C13.3992 7.96212 12.8714 5.9285 12.9913 3.88065C12.9913 3.56623 12.9913 3.25181 13.0541 2.90146C11.153 3.80946 9.57113 5.27205 8.51666 7.09682C7.46218 8.92158 6.9845 11.023 7.14647 13.1246L2.86387 11.8849C2.73818 12.2083 2.62147 12.4958 2.52271 12.7832C1.88075 14.5338 1.5761 16.3901 1.62489 18.2541C1.66433 19.4058 1.95378 20.5351 2.47316 21.5636C2.99254 22.5921 3.72939 23.4952 4.63258 24.2102C4.83908 24.3809 5.06353 24.5246 5.28798 24.6863V24.6324L5.23411 24.4707C4.83779 23.4258 4.72323 22.295 4.90193 21.1917C5.09189 20.1353 5.41154 19.1064 5.85361 18.1284C5.94339 17.9218 6.0242 17.8679 6.23968 17.9397C6.70655 18.0925 7.1375 18.2182 7.68517 18.3619C7.68517 18.2362 7.74801 18.1374 7.77494 18.0296C8.08878 16.518 8.98983 15.1932 10.2799 14.3464C11.1777 13.7624 12.1653 13.2773 13.117 12.7473H13.2068C13.126 13.448 13.0631 14.1398 12.9733 14.8225C12.8287 15.624 12.9288 16.4504 13.2606 17.1941C13.5554 17.735 13.9517 18.2139 14.4278 18.6045C15.1012 19.1873 15.6033 19.9426 15.8801 20.7894C16.1569 21.6361 16.198 22.5423 15.999 23.4107C15.9176 23.8383 15.8127 24.2612 15.6847 24.6773ZM6.85917 19.8352C6.72449 20.5539 6.54493 21.2546 6.48208 21.9553C6.38362 22.641 6.49161 23.3405 6.79224 23.9646C7.09288 24.5886 7.57254 25.1088 8.16999 25.4589C9.20029 26.0411 10.4117 26.2142 11.5637 25.944C12.2505 25.8475 12.8908 25.5411 13.397 25.0668C13.9032 24.5924 14.2507 23.9733 14.3919 23.2939C14.5876 22.6473 14.5806 21.9563 14.3719 21.3139C14.1632 20.6714 13.7629 20.1084 13.2247 19.7005C12.2867 18.9706 11.648 17.9225 11.4291 16.7539C11.3662 16.3946 11.2944 16.0442 11.2226 15.6939H11.1597L11.052 15.7657C10.5106 16.1808 10.0684 16.7115 9.7578 17.3191C9.44718 17.9268 9.27588 18.596 9.25636 19.2783C9.25636 19.6735 9.25636 20.0778 9.25636 20.509L6.85917 19.8352Z" fill="#36373C"/>
</svg>
